#!OML:ASF F:\VICON\USERDATA\INSTALL\rory3\rory3.ASF
:FULLY-SPECIFIED
:DEGREES
300
root 0.123151 16.9926 4.74627 -15.7156 -76.0495 26.9497
lowerback -4.72584 1.41027 1.50869
upperback -4.74681 1.73353 -0.573839
thorax -2.17164 0.773938 -1.38479
lowerneck -8.82325 10.19 5.04576
upperneck 39.854 14.0149 -2.75212
head 16.3616 5.82583 0.0765445
rclavicle 1.97294e-014 -2.46493e-014
rhumerus -8.14985 9.50798 -23.8836
rradius 106.063
rwrist -49.4359
rhand -2.45141 -41.4789
rfingers 7.12502
rthumb 23.2404 -70.0965
lclavicle 1.97294e-014 -2.46493e-014
lhumerus 33.9787 21.9876 -1.92053
lradius 61.8092
lwrist 47.5283
lhand -20.9715 -14.368
lfingers 7.12502
lthumb 5.40183 15.5432
rfemur -44.7023 12.4498 6.78163
rtibia 66.6601
rfoot -5.04198 -6.24372
rtoes -23.2622
lfemur -22.7539 -1.65114 -35.1259
ltibia 31.2346
lfoot -17.912 10.5467
ltoes 13.7402
301
root 0.123324 16.9828 4.73711 -15.9804 -75.935 27.1913
lowerback -4.70342 1.37459 1.49341
upperback -4.67196 1.68884 -0.593025
thorax -2.10803 0.753922 -1.39672
lowerneck -8.79654 10.1961 4.99554
upperneck 39.9081 14.1194 -2.96737
head 16.4115 5.82821 0.00969276
rclavicle -4.73108e-014 2.8625e-014
rhumerus -8.28683 10.0314 -24.5282
rradius 105.788
rwrist -49.1144
rhand -2.60468 -41.1473
rfingers 7.12502
rthumb 23.0933 -69.7834
lclavicle -4.73108e-014 2.8625e-014
lhumerus 33.9358 21.6936 -1.80658
lradius 62.2704
lwrist 47.8315
lhand -21.0717 -15.0985
lfingers 7.12502
lthumb 5.30512 14.8151
rfemur -44.7867 12.3295 7.01106
rtibia 66.8781
rfoot -4.29232 -6.93182
rtoes -26.5697
lfemur -22.7549 -1.4277 -35.2485
ltibia 31.2785
lfoot -17.2656 11.1584
ltoes 7.9104
302
root 0.123268 16.9766 4.72556 -16.7519 -75.8349 27.9634
lowerback -4.66925 1.42669 1.2894
upperback -4.60555 1.76603 -0.647384
thorax -2.05975 0.799224 -1.33594
lowerneck -8.74158 10.184 4.78857
upperneck 39.9298 14.1217 -2.8875
head 16.3777 5.81141 0.0731795
rclavicle -2.17172e-014 -7.95139e-016
rhumerus -8.69314 10.4407 -25.3071
rradius 105.532
rwrist -48.7744
rhand -3.233 -41.3126
rfingers 7.12502
rthumb 22.4903 -70.023
lclavicle -2.17172e-014 -7.95139e-016
lhumerus 34.117 21.4066 -1.49713
lradius 62.7664
lwrist 48.0926
lhand -21.056 -15.5884
lfingers 7.12502
lthumb 5.32025 14.3248
rfemur -44.8828 12.5099 6.8697
rtibia 67.102
rfoot -4.24406 -7.40171
rtoes -25.9201
lfemur -22.7773 -1.49898 -35.4174
ltibia 31.3319
lfoot -17.8248 10.6888
ltoes 12.3586
303
root 0.12339 16.9727 4.71227 -17.5904 -75.7042 28.8299
lowerback -4.68271 1.42493 1.01696
upperback -4.50892 1.77321 -0.711704
thorax -1.95789 0.811711 -1.24748
lowerneck -8.88547 10.2749 4.73113
upperneck 40.0692 14.2155 -2.71147
head 16.4658 5.85732 0.185909
rclavicle -5.90887e-014 1.59028e-015
rhumerus -8.88924 10.8258 -25.9582
rradius 105.362
rwrist -48.7882
rhand -3.23582 -41.5591
rfingers 7.12502
rthumb 22.4876 -70.2698
lclavicle -5.90887e-014 1.59028e-015
lhumerus 34.1705 21.1729 -1.24718
lradius 63.3829
lwrist 48.1727
lhand -21.1411 -15.8711
lfingers 7.12502
lthumb 5.2381 14.0442
rfemur -44.9712 13.0194 6.37082
rtibia 67.3539
rfoot -5.22876 -7.499
rtoes -20.322
lfemur -22.7589 -1.82035 -35.6191
ltibia 31.2736
lfoot -17.6309 10.9504
ltoes 12.2217
304
root 0.123675 16.9596 4.7012 -18.1005 -75.5598 29.3611
lowerback -4.76079 1.35442 0.925256
upperback -4.37495 1.68418 -0.766457
thorax -1.77938 0.772098 -1.25118
lowerneck -9.09287 10.3698 4.75521
upperneck 40.2912 14.4209 -2.85687
head 16.6712 5.90655 0.173754
rclavicle -2.91592e-014 -6.36111e-015
rhumerus -8.80003 11.1994 -26.3442
rradius 105.155
rwrist -49.284
rhand -2.20307 -41.47
rfingers 7.12502
rthumb 23.4786 -70.0573
lclavicle -2.91592e-014 -6.36111e-015
lhumerus 34.0527 21.0043 -1.17801
lradius 63.9801
lwrist 48.0927
lhand -21.2355 -16.3829
lfingers 7.12502
lthumb 5.14701 13.5346
rfemur -45.1244 12.9857 6.40486
rtibia 67.5584
rfoot -4.31378 -8.20166
rtoes -24.8851
lfemur -22.8152 -0.808219 -35.8879
ltibia 31.2575
lfoot -17.8423 9.83718
ltoes 12.5343
305
root 0.1252 16.9527 4.68885 -17.661 -75.3975 28.9631
lowerback -4.84025 1.21283 0.981738
upperback -4.29653 1.49566 -0.707277
thorax -1.65956 0.679221 -1.22544
lowerneck -8.51491 10.3329 3.77405
upperneck 39.6692 14.4259 -2.51062
head 16.0444 5.86396 0.421582
rclavicle -3.41785e-014 -1.03368e-014
rhumerus -8.73788 11.8823 -27.4167
rradius 104.769
rwrist -48.9955
rhand -1.75186 -41.6045
rfingers 7.12502
rthumb 23.9114 -70.1358
lclavicle -3.41785e-014 -1.03368e-014
lhumerus 33.733 20.7677 -1.28496
lradius 64.5378
lwrist 48.1317
lhand -21.1471 -16.1261
lfingers 7.12502
lthumb 5.23229 13.7893
rfemur -45.2639 12.9025 6.53201
rtibia 67.721
rfoot -3.91307 -8.4951
rtoes -25.5661
lfemur -22.7831 -1.78225 -35.7998
ltibia 31.2367
lfoot -17.1864 11.3626
ltoes 9.02527
306
root 0.128342 16.9344 4.67195 -15.9213 -75.2449 27.2729
lowerback -4.89894 1.06462 1.32697
upperback -4.28456 1.28781 -0.593109
thorax -1.61583 0.569015 -1.30752
lowerneck -8.97847 10.4888 4.52098
upperneck 40.2507 14.7262 -3.05265
head 16.6385 5.97265 0.171292
rclavicle 9.77772e-015 3.18055e-015
rhumerus -8.71413 12.5955 -28.3162
rradius 104.45
rwrist -48.9094
rhand -2.58447 -41.9406
rfingers 7.12502
rthumb 23.1127 -70.5743
lclavicle 9.77772e-015 3.18055e-015
lhumerus 33.5136 20.4403 -1.36682
lradius 65.1441
lwrist 48.2746
lhand -21.0277 -15.8033
lfingers 7.12502
lthumb 5.34765 14.1092
rfemur -45.4656 12.6928 7.15863
rtibia 67.7946
rfoot -2.73729 -8.92767
rtoes -28.907
lfemur -22.9697 -1.22724 -35.6076
ltibia 31.3436
lfoot -16.3205 12.1014
ltoes 2.2321
307
root 0.129593 16.9454 4.65592 -14.4026 -75.1401 25.7713
lowerback -4.92462 0.949522 1.69671
upperback -4.26426 1.12309 -0.525699
thorax -1.58084 0.479422 -1.45071
lowerneck -8.85171 10.5432 4.13487
upperneck 40.3535 14.8192 -2.85989
head 16.6005 5.97539 0.321303
rclavicle 2.19284e-014 7.95139e-016
rhumerus -8.74397 13.0732 -29.2071
rradius 104.027
rwrist -48.6148
rhand -3.92785 -42.4342
rfingers 7.12502
rthumb 21.8232 -71.2237
lclavicle 2.19284e-014 7.95139e-016
lhumerus 33.4049 20.1175 -1.37793
lradius 65.8008
lwrist 48.4028
lhand -21.1487 -16.1802
lfingers 7.12502
lthumb 5.23078 13.7352
rfemur -45.4087 13.2082 7.12577
rtibia 67.8095
rfoot -4.66643 -8.64742
rtoes -19.0958
lfemur -23.0771 -1.94662 -35.1099
ltibia 31.4144
lfoot -16.1548 12.506
ltoes 2.37902
